#!OML:ASF F:\VICON\USERDATA\INSTALL\rory3\rory3.ASF
:FULLY-SPECIFIED
:DEGREES
161
root 14.8166 17.9454 2.4142 -4.29447 5.30076 3.67172
lowerback 10.5159 1.33852 -2.8054
upperback 1.03318 1.38322 -1.39528
thorax -4.85122 0.726826 -0.0771644
lowerneck -20.0567 -7.25098 -14.2461
upperneck 27.753 -8.92705 10.5702
head 13.9904 -4.0314 5.02183
rclavicle 1.5881e-014 -4.77083e-015
rhumerus -34.3545 -15.0526 -80.3799
rradius 33.6225
rwrist 5.21178
rhand -14.5934 9.52973
rfingers 7.12502
rthumb 11.5569 -20.1316
lclavicle 1.5881e-014 -4.77083e-015
lhumerus -38.6818 12.4125 77.4796
lradius 26.0313
lwrist -11.7271
lhand -17.2146 24.5627
lfingers 7.12502
lthumb 9.02828 54.3495
rfemur -0.933522 -6.57383 20.2254
rtibia 58.0338
rfoot 13.8796 -5.11621
rtoes 22.8745
lfemur -4.63969 -0.292426 -23.2491
ltibia 3.81397
lfoot 6.67261 -13.1083
ltoes -7.33244
162
root 14.8339 17.9687 2.54319 -4.31241 5.07722 3.97283
lowerback 10.5372 1.41873 -3.04964
upperback 0.94275 1.45562 -1.43448
thorax -4.96466 0.768585 0.00613435
lowerneck -19.8274 -7.22768 -14.3117
upperneck 27.7932 -8.8729 10.4679
head 13.9477 -4.03546 5.00537
rclavicle -3.88407e-015 5.96354e-016
rhumerus -34.7417 -14.8546 -80.3541
rradius 33.1607
rwrist 4.80153
rhand -14.7109 9.49282
rfingers 7.12502
rthumb 11.4436 -20.1749
lclavicle -3.88407e-015 5.96354e-016
lhumerus -38.5097 11.9825 77.6944
lradius 26.1756
lwrist -11.6034
lhand -16.7866 24.9894
lfingers 7.12502
lthumb 9.4412 54.7579
rfemur -2.0439 -7.12424 19.7291
rtibia 59.8727
rfoot 14.1723 -5.82133
rtoes 23.2844
lfemur -2.17167 -0.0797028 -23.6666
ltibia -7.95139e-015
lfoot 8.42159 -13.0239
ltoes -5.14455
163
root 14.85 17.9873 2.67001 -4.3956 4.87926 4.25281
lowerback 10.5983 1.49112 -3.22865
upperback 0.897629 1.52338 -1.49452
thorax -5.05097 0.806191 0.0313055
lowerneck -19.6519 -7.21436 -14.4055
upperneck 27.7891 -8.83503 10.4345
head 13.9061 -4.03874 5.01694
rclavicle -2.70689e-014 1.41634e-014
rhumerus -35.0427 -14.8263 -80.2907
rradius 32.6612
rwrist 4.92595
rhand -14.6137 9.53005
rfingers 7.12502
rthumb 11.5374 -20.1324
lclavicle -2.70689e-014 1.41634e-014
lhumerus -38.1622 11.658 77.8412
lradius 26.1413
lwrist -11.6227
lhand -16.8229 25.0685
lfingers 7.12502
lthumb 9.40625 54.8386
rfemur -3.0355 -7.69322 19.2651
rtibia 61.5712
rfoot 13.7509 -6.71553
rtoes 22.8341
lfemur -1.48158 0.113026 -23.9853
ltibia -8.74653e-015
lfoot 7.97299 -12.9083
ltoes -4.47255
164
root 14.8648 18.0028 2.79275 -4.46571 4.7094 4.38283
lowerback 10.5481 1.54812 -3.24247
upperback 0.958892 1.59831 -1.5604
thorax -4.95909 0.841514 -0.0383199
lowerneck -19.6341 -7.23188 -14.3357
upperneck 27.7881 -8.87346 10.3899
head 13.9012 -4.05403 4.97888
rclavicle -2.85504e-014 8.69683e-015
rhumerus -35.1193 -15.1741 -80.2287
rradius 32.0219
rwrist 5.37664
rhand -14.4817 10.0925
rfingers 7.12502
rthumb 11.6646 -19.5628
lclavicle -2.85504e-014 8.69683e-015
lhumerus -37.5484 11.3369 77.9978
lradius 26.0131
lwrist -11.4429
lhand -17.2862 24.7816
lfingers 7.12502
lthumb 8.95915 54.5714
rfemur -3.99157 -8.25978 18.993
rtibia 63.0954
rfoot 12.9467 -7.82429
rtoes 23.7639
lfemur -0.834318 0.264769 -24.1669
ltibia -6.36111e-015
lfoot 7.42821 -12.9099
ltoes -4.66219
165
root 14.8757 18.0167 2.91217 -4.448 4.57254 4.53928
lowerback 10.4741 1.57861 -3.41289
upperback 0.977463 1.62273 -1.56558
thorax -4.90363 0.856333 0.0506286
lowerneck -19.7678 -7.24107 -14.2424
upperneck 28.0017 -8.8734 10.2549
head 14.0082 -4.05929 4.91324
rclavicle -1.33714e-015 5.2181e-015
rhumerus -35.1853 -15.2268 -80.1946
rradius 31.463
rwrist 5.49851
rhand -14.4386 10.1704
rfingers 7.12502
rthumb 11.7062 -19.4826
lclavicle -1.33714e-015 5.2181e-015
lhumerus -37.05 11.2159 78.1367
lradius 25.9954
lwrist -11.2023
lhand -17.7659 24.5465
lfingers 7.12502
lthumb 8.49628 54.3556
rfemur -4.99953 -8.80071 18.7314
rtibia 64.411
rfoot 10.9852 -9.03807
rtoes 23.2001
lfemur -0.390616 0.380716 -24.365
ltibia -6.36111e-015
lfoot 7.0946 -12.912
ltoes -4.28128
166
root 14.886 18.0334 3.03171 -4.4441 4.5137 4.72802
lowerback 10.4337 1.57524 -3.58804
upperback 0.972222 1.60052 -1.5499
thorax -4.89128 0.848989 0.169451
lowerneck -19.8232 -7.19553 -14.2536
upperneck 28.0914 -8.7598 10.1322
head 14.0341 -4.0264 4.889
rclavicle -4.16167e-015 -2.70844e-015
rhumerus -35.333 -15.1987 -80.0485
rradius 30.9703
rwrist 5.8081
rhand -14.2484 10.1734
rfingers 7.12502
rthumb 11.8896 -19.469
lclavicle -4.16167e-015 -2.70844e-015
lhumerus -36.7621 11.1693 78.2766
lradius 26.2851
lwrist -11.2994
lhand -17.7474 25.0659
lfingers 7.12502
lthumb 8.51409 54.8742
rfemur -5.92668 -9.40692 18.4117
rtibia 65.4966
rfoot 9.08022 -9.85654
rtoes 22.3971
lfemur 0.0723605 0.423625 -24.5968
ltibia -9.54166e-015
lfoot 6.74256 -12.9483
ltoes -4.74774
